# xmcd
#
# Track frame offsets: 
#        150
#        12341
#        27548
#        42650
#        57845
#        70344
#        85944
#        100017
#        113238
#        127467
#
# Disc length: 2258 seconds
#
# Revision: 0
# Processed by: cddbd v1.5.2PL0 Copyright (c) Steve Scherf et al.
# Submitted via: ExactAudioCopy v1.0b3
#
DISCID=8f08d00a
DTITLE=Demis Roussos - Demis
DYEAR=2009
DGENRE=Pop
TTITLE0=September (I'm On My Way)
TTITLE1=On My Pillow
TTITLE2=Love Is
TTITLE3=What They Say
TTITLE4=Hello, Hello
TTITLE5=Hit Me
TTITLE6=I'll Be Home
TTITLE7=Spoiled Brat
TTITLE8=Help Me
TTITLE9=Who Gives A Fuck
EXTD=
EXTT0=
EXTT1=
EXTT2=
EXTT3=
EXTT4=
EXTT5=
EXTT6=
EXTT7=
EXTT8=
EXTT9=
PLAYORDER=
